<mxfile host="app.diagrams.net" modified="2021-08-11T13:53:35.669Z" agent="5.0 (Windows NT 6.1; Win64; x64) AppleWebKit/537.36 (KHTML, like Gecko) Chrome/92.0.4515.131 Safari/537.36" etag="MYG7n3lC8X61VWok7lbz" version="14.9.5" type="github">
  <diagram id="R2lEEEUBdFMjLlhIrx00" name="Page-1">
    <mxGraphModel dx="868" dy="450" grid="1" gridSize="10" guides="1" tooltips="1" connect="1" arrows="1" fold="1" page="1" pageScale="1" pageWidth="850" pageHeight="1100" math="0" shadow="0" extFonts="Permanent Marker^https://fonts.googleapis.com/css?family=Permanent+Marker">
      <root>
        <mxCell id="0" />
        <mxCell id="1" parent="0" />
        <mxCell id="5eVXbULbvuUyw98SHxzi-13" value="Articulos" style="swimlane;childLayout=stackLayout;horizontal=1;startSize=30;horizontalStack=0;rounded=0;fontSize=14;fontStyle=0;strokeWidth=2;resizeParent=0;resizeLast=1;shadow=0;dashed=0;align=center;sketch=0;" vertex="1" parent="1">
          <mxGeometry x="130" y="80" width="180" height="180" as="geometry" />
        </mxCell>
        <mxCell id="5eVXbULbvuUyw98SHxzi-14" value="-Nombre&#xa;-Descripción&#xa;-Categoría a la que pertenece&#xa;- Precio&#xa;-Moneda (Pesos o Dólares)&#xa;-Cantidad de comprados&#xa;- Imágenes&#xa;- Productos relacionados&#xa;- Puntuación y comentarios" style="align=left;strokeColor=none;fillColor=none;spacingLeft=4;fontSize=12;verticalAlign=top;resizable=0;rotatable=0;part=1;" vertex="1" parent="5eVXbULbvuUyw98SHxzi-13">
          <mxGeometry y="30" width="180" height="150" as="geometry" />
        </mxCell>
      </root>
    </mxGraphModel>
  </diagram>
</mxfile>
